ply
format ascii 1.0
comment Created by Blender 2.70 (sub 0) - www.blender.org, source file: 'testCube.blend'
element vertex 24
property float x
property float y
property float z
property float nx
property float ny
property float nz
property uchar red
property uchar green
property uchar blue
element face 6
property list uchar uint vertex_indices
end_header
1.000000 1.000000 0.000000 0.000000 0.000000 -1.000000 19 1 255
1.000000 0.000000 0.000000 0.000000 0.000000 -1.000000 53 255 0
0.000000 0.000000 0.000000 0.000000 0.000000 -1.000000 255 0 7
0.000000 1.000000 0.000000 0.000000 0.000000 -1.000000 255 255 255
1.000000 1.000000 1.000000 0.000000 0.000000 1.000000 255 0 7
0.000000 1.000000 1.000000 0.000000 0.000000 1.000000 53 255 0
0.000000 0.000000 1.000000 0.000000 0.000000 1.000000 12 0 255
1.000000 0.000000 1.000000 0.000000 0.000000 1.000000 0 0 0
1.000000 1.000000 0.000000 1.000000 0.000000 0.000000 19 1 255
1.000000 1.000000 1.000000 1.000000 0.000000 0.000000 255 0 7
1.000000 0.000000 1.000000 1.000000 0.000000 0.000000 0 0 0
1.000000 0.000000 0.000000 1.000000 0.000000 0.000000 53 255 0
1.000000 0.000000 0.000000 0.000000 -1.000000 0.000000 53 255 0
1.000000 0.000000 1.000000 0.000000 -1.000000 0.000000 0 0 0
0.000000 0.000000 1.000000 0.000000 -1.000000 0.000000 12 0 255
0.000000 0.000000 0.000000 0.000000 -1.000000 0.000000 255 0 7
0.000000 0.000000 0.000000 -1.000000 0.000000 0.000000 255 0 7
0.000000 0.000000 1.000000 -1.000000 0.000000 0.000000 12 0 255
0.000000 1.000000 1.000000 -1.000000 0.000000 0.000000 53 255 0
0.000000 1.000000 0.000000 -1.000000 0.000000 0.000000 255 255 255
1.000000 1.000000 1.000000 0.000000 1.000000 0.000000 255 0 7
1.000000 1.000000 0.000000 0.000000 1.000000 0.000000 19 1 255
0.000000 1.000000 0.000000 0.000000 1.000000 0.000000 255 255 255
0.000000 1.000000 1.000000 0.000000 1.000000 0.000000 53 255 0
4 0 1 2 3
4 4 5 6 7
4 8 9 10 11
4 12 13 14 15
4 16 17 18 19
4 20 21 22 23
